HIERARCHY
ROOT Hips
{
	OFFSET 0.0000 0.0000 0.0000
	CHANNELS 6 Xposition Yposition Zposition Zrotation Xrotation Yrotation
	JOINT Ab
	{
		OFFSET -0.0000 8.1305 -0.0000
		CHANNELS 3 Zrotation Xrotation Yrotation
		JOINT Chest
		{
			OFFSET -0.0000 26.2902 -0.0000
			CHANNELS 3 Zrotation Xrotation Yrotation
			JOINT Neck
			{
				OFFSET -0.0000 26.2902 0.0000
				CHANNELS 3 Zrotation Xrotation Yrotation
				JOINT Head
				{
					OFFSET -0.0000 10.8167 0.0000
					CHANNELS 3 Zrotation Xrotation Yrotation
					End Site
					{
						OFFSET -0.0000 16.7167 0.0000
					}
				}
			}
			JOINT LeftCollar
			{
				OFFSET -0.0000 26.2902 0.0000
				CHANNELS 3 Zrotation Xrotation Yrotation
				JOINT LeftShoulder
				{
					OFFSET 19.6667 -0.0000 0.0000
					CHANNELS 3 Zrotation Xrotation Yrotation
					JOINT LeftElbow
					{
						OFFSET 27.2190 0.0000 0.0000
						CHANNELS 3 Zrotation Xrotation Yrotation
						JOINT LeftWrist
						{
							OFFSET 30.7431 0.0000 0.0000
							CHANNELS 3 Zrotation Xrotation Yrotation
							End Site
							{
								OFFSET 0.0000 -14.7500 0.0000
							}
						}
					}
				}
			}
			JOINT RightCollar
			{
				OFFSET -0.0000 26.2902 0.0000
				CHANNELS 3 Zrotation Xrotation Yrotation
				JOINT RightShoulder
				{
					OFFSET -19.6667 0.0000 0.0000
					CHANNELS 3 Zrotation Xrotation Yrotation
					JOINT RightElbow
					{
						OFFSET -27.2190 0.0000 0.0000
						CHANNELS 3 Zrotation Xrotation Yrotation
						JOINT RightWrist
						{
							OFFSET -30.7431 0.0000 0.0000
							CHANNELS 3 Zrotation Xrotation Yrotation
							End Site
							{
								OFFSET -0.0000 -14.7500 0.0000
							}
						}
					}
				}
			}
		}
	}
	JOINT LeftHip
	{
		OFFSET 11.8000 0.0000 0.0000
		CHANNELS 3 Zrotation Xrotation Yrotation
		JOINT LeftKnee
		{
			OFFSET -0.0000 -39.7832 0.0000
			CHANNELS 3 Zrotation Xrotation Yrotation
			JOINT LeftAnkle
			{
				OFFSET -0.0000 -41.7317 0.0000
				CHANNELS 3 Zrotation Xrotation Yrotation
				End Site
				{
					OFFSET -0.0000 -4.9167 16.7167
				}
			}
		}
	}
	JOINT RightHip
	{
		OFFSET -11.8000 0.0000 0.0000
		CHANNELS 3 Zrotation Xrotation Yrotation
		JOINT RightKnee
		{
			OFFSET -0.0000 -39.7832 0.0000
			CHANNELS 3 Zrotation Xrotation Yrotation
			JOINT RightAnkle
			{
				OFFSET -0.0000 -41.7317 0.0000
				CHANNELS 3 Zrotation Xrotation Yrotation
				End Site
				{
					OFFSET -0.0000 -4.9167 16.7167
				}
			}
		}
	}
}
MOTION
Frames: 15
Frame Time: 0.010000
-18.6585 96.8027 173.8444 357.8345 356.9259 178.3970 357.3832 348.0930 359.6348 2.4875 11.0519 359.6651 357.8175 357.9805 0.5975 357.7926 3.5574 0.7059 339.9935 357.3221 15.1920 321.1397 60.5429 335.9728 8.9406 357.2842 326.2239 91.9382 356.0054 345.6281 26.3960 355.8090 342.3501 46.9814 46.7201 2.4978 339.6256 354.1660 31.8969 269.3980 353.5274 8.1540 355.4747 2.4742 1.7321 358.3964 6.4885 4.8085 356.1491 352.3703 13.1052 357.3684 4.9810 11.1879 6.5100 7.3361 10.4369 349.1464 342.8513 309.9786 
-18.6848 96.7972 173.8366 357.8349 356.8753 178.3951 357.3748 348.0769 359.6317 2.4779 11.0712 359.6655 357.8387 357.9479 0.5964 357.7614 3.6228 0.7055 340.0106 357.3249 15.1894 321.1518 60.5358 335.9239 8.9946 357.2812 326.2375 91.9663 356.0300 345.6946 26.3802 355.8426 342.3276 46.9612 46.7527 2.5968 339.6207 354.1216 31.8888 269.4369 353.5414 8.1532 355.4604 2.4189 1.7307 358.3942 6.5076 4.8002 356.1195 352.3582 13.1177 357.3522 4.9111 11.1708 6.5162 7.3850 10.4576 349.2967 342.5571 309.8818 
-18.7149 96.7937 173.8215 357.8373 356.8550 178.3903 357.3814 348.0850 359.6303 2.4548 11.0990 359.6627 357.8584 357.9181 0.5967 357.7281 3.6851 0.7081 340.0349 357.3038 15.1633 321.0520 60.5140 336.0251 9.0332 357.2276 326.1570 92.6274 356.0751 346.0476 26.3443 355.8196 342.3260 47.0084 46.8152 2.6261 339.5278 354.0908 31.8586 269.5459 353.5082 8.1849 355.4430 2.3992 1.7157 358.3922 6.5316 4.7943 356.2225 352.3359 13.1310 357.3346 4.8795 11.1646 6.5267 7.4165 10.4133 349.3173 342.5130 309.9082 
-18.7474 96.7898 173.8041 357.8375 356.8271 178.3823 357.3932 348.0703 359.6299 2.4234 11.1550 359.6619 357.8887 357.8621 0.5975 357.6759 3.7617 0.7115 340.0514 357.3237 15.1596 321.0587 60.4753 336.0148 8.9793 357.2485 326.1175 92.7739 356.0870 346.1072 26.3256 355.8529 342.3333 47.0284 46.8162 2.6492 339.5534 354.0904 31.8909 269.5298 353.5447 8.1510 355.4233 2.3866 1.6824 358.3850 6.5264 4.8105 356.2058 352.3205 13.1529 357.3107 4.8484 11.1679 6.5353 7.4443 10.4321 349.2089 342.7095 309.9737 
-18.7807 96.7873 173.7852 357.8311 356.7887 178.3678 357.4027 348.0455 359.6244 2.3868 11.2077 359.6575 357.8910 357.8031 0.6045 357.6677 3.8454 0.7219 340.0752 357.3139 15.1912 321.1466 60.4998 335.8833 9.0371 357.2347 326.1466 92.6689 356.0844 346.1319 26.3105 355.8439 342.3555 47.0568 46.8082 2.6631 339.5064 354.0848 31.9003 269.5554 353.5404 8.1715 355.3706 2.3086 1.6699 358.4316 6.6235 4.8858 356.2662 352.2689 13.0787 357.2769 4.7960 11.1545 6.5519 7.4887 10.4261 349.2894 342.5324 309.9389 
-18.8119 96.7838 173.7709 357.8281 356.7465 178.3608 357.3961 348.0234 359.6181 2.3678 11.2625 359.6589 357.9070 357.7494 0.6011 357.6504 3.9141 0.7227 340.0846 357.3283 15.1904 321.1592 60.4525 335.8592 9.0046 357.2458 326.1298 92.5828 356.0946 346.0622 26.2956 355.8502 342.3564 47.0472 46.8281 2.7220 339.5043 354.0827 31.8984 269.5826 353.5601 8.1852 355.3404 2.2531 1.6308 358.4441 6.6683 4.9065 356.2351 352.2279 13.0849 357.2529 4.7368 11.1233 6.5598 7.5373 10.4440 349.3333 342.4348 309.9183 
-18.8437 96.7812 173.7573 357.8210 356.7089 178.3447 357.3891 348.0155 359.6161 2.3525 11.3048 359.6581 357.9160 357.6909 0.6040 357.6234 4.0006 0.7275 340.0915 357.3246 15.2080 321.2159 60.4469 335.7831 9.0273 357.2377 326.1303 92.4973 356.0981 346.0376 26.2888 355.8483 342.3637 47.0101 46.8363 2.7787 339.5119 354.0899 31.9216 269.5803 353.5795 8.1668 355.3156 2.2327 1.5810 358.4320 6.6515 4.9553 356.2168 352.2256 13.0980 357.2171 4.6777 11.1009 6.5808 7.5894 10.4718 349.3446 342.3938 309.9186 
-18.8774 96.7786 173.7417 357.8178 356.6701 178.3300 357.3346 348.0919 359.6541 2.4219 11.1803 359.6939 357.9797 357.7154 0.5891 357.4732 4.1195 0.7188 340.0425 357.3068 15.1972 321.2093 60.5049 335.8331 9.0256 357.2483 326.1638 92.3640 356.0626 345.9824 26.2500 355.8450 342.3160 47.0084 46.9052 2.7778 339.4518 354.0917 31.9007 269.5902 353.5818 8.0852 355.2932 2.2197 1.5111 358.4148 6.6217 5.0111 356.2476 352.2279 13.1147 357.1854 4.6223 11.0770 6.5988 7.6348 10.4868 349.3519 342.3563 309.9226 
-18.9116 96.7748 173.7277 357.8178 356.6320 178.3204 357.2969 348.1457 359.6754 2.4581 11.1104 359.7171 358.2998 357.5436 0.5835 356.9650 4.5191 0.7390 340.0184 357.3119 15.1707 321.2754 60.5517 335.7971 8.9983 357.2515 326.1638 92.3499 355.9768 345.9151 26.2263 355.8366 342.2539 47.0033 46.9541 2.7900 339.4383 354.0892 31.8953 269.5412 353.5995 8.0470 355.2775 2.2023 1.4279 358.3916 6.6019 5.0511 356.2990 352.2230 13.1537 357.1557 4.5650 11.0514 6.6198 7.6838 10.4893 349.3695 342.3166 309.9382 
-18.9450 96.7684 173.7100 357.8215 356.5979 178.3113 357.3058 348.1440 359.6734 2.4239 11.1525 359.7125 358.1232 357.6612 0.5361 357.3173 4.2992 0.6742 340.0383 357.3066 15.1715 321.4047 60.5834 335.6530 9.0331 357.2396 326.1920 92.2851 355.8768 345.8002 26.2199 355.8388 342.2360 47.0034 46.9821 2.8327 339.4418 354.0806 31.8954 269.5273 353.5985 8.0629 355.2669 2.1980 1.3496 358.3674 6.5688 5.1089 356.3401 352.2217 13.1634 357.1289 4.5161 11.0279 6.6417 7.7315 10.5052 349.3834 342.2807 309.9436 
-18.9787 96.7607 173.6921 357.8256 356.5651 178.3007 357.2998 348.1432 359.6724 2.4133 11.2006 359.7181 358.2148 357.5434 0.5290 357.1662 4.4957 0.6794 340.0497 357.3106 15.1757 321.4431 60.5671 335.6028 9.0319 357.2468 326.1745 92.3349 355.8910 345.7825 26.2315 355.8510 342.3007 46.9904 46.9339 2.8162 339.4565 354.0857 31.9322 269.6584 353.5090 7.8996 355.2545 2.1981 1.2895 358.3444 6.5280 5.1700 356.2110 352.2209 13.1714 357.1036 4.4665 10.9908 6.6620 7.7801 10.5272 349.3968 342.2430 309.9462 
-19.0145 96.7544 173.6768 357.8298 356.5246 178.2960 357.2898 348.1383 359.6678 2.4111 11.2465 359.7238 358.3006 357.4627 0.5173 357.0251 4.6373 0.6762 340.0615 357.3209 15.1603 321.4036 60.5219 335.6151 9.0237 357.2431 326.1319 92.4066 355.9343 345.8074 26.2594 355.8538 342.3828 46.9473 46.8386 2.7828 339.5060 354.0895 31.9777 269.7053 353.4521 7.9198 355.2415 2.1825 1.2319 358.3218 6.4979 5.2037 356.4086 352.2431 13.1754 357.0779 4.4052 10.9543 6.6831 7.8345 10.5501 349.4050 342.2106 309.9459 
-19.0514 96.7502 173.6570 357.8331 356.4869 178.2885 357.2895 348.1265 359.6672 2.3957 11.3103 359.7197 358.2796 357.4431 0.4930 357.0582 4.6564 0.6506 340.0604 357.3108 15.1818 321.5395 60.5298 335.4637 9.0468 357.2363 326.1321 92.3890 355.9525 345.8733 26.2396 355.8623 342.3981 46.9499 46.8563 2.8377 339.4990 354.0632 31.9829 269.5337 353.5761 8.1097 355.2294 2.1712 1.1524 358.2933 6.4739 5.2471 356.4828 352.2400 13.2022 357.0534 4.3459 10.9208 6.6960 7.9050 10.5857 349.4116 342.1751 309.9488 
-19.0863 96.7444 173.6416 357.8420 356.4382 178.2810 357.3074 348.1121 359.6614 2.3576 11.3703 359.7137 358.2496 357.4127 0.4858 357.1344 4.6822 0.6446 340.0649 357.3195 15.1954 321.6352 60.4768 335.3652 8.9937 357.2541 326.1172 92.3493 355.9622 345.8333 26.2440 355.8726 342.4261 46.9540 46.8579 2.8657 339.4857 354.0606 31.9959 269.4962 353.5658 8.0702 355.2285 2.1415 1.0610 358.2559 6.4557 5.3389 356.3975 352.2325 13.2158 357.0462 4.2448 10.7196 6.6955 8.0386 10.7696 349.4096 342.1143 309.9302 
-19.1263 96.7419 173.6242 357.8407 356.3884 178.2703 357.3137 348.0879 359.6655 2.3307 11.4465 359.7143 358.2444 357.3633 0.4808 357.1445 4.7328 0.6398 340.0693 357.3050 15.2249 321.7555 60.4757 335.2213 9.0350 357.2457 326.1360 92.1224 355.9444 345.7783 26.2204 355.8572 342.4344 46.9488 46.9501 2.9413 339.3974 354.0392 31.9580 269.5357 353.5506 8.0041 355.2072 2.1173 0.9745 358.2331 6.4261 5.4249 356.5616 352.2519 13.2114 357.0141 4.1676 10.7096 6.7149 8.1076 10.7761 349.4302 342.0678 309.9351 
